HIERARCHY
ROOT SpineBase
{
  OFFSET 0.000000 0.000000 0.000000
  CHANNELS 6 Xposition Yposition Zposition Zrotation Xrotation Yrotation
  JOINT SpineMid
  {
    OFFSET 0.000000 29.012557 0.000000
    CHANNELS 3 Zrotation Xrotation Yrotation
    JOINT SpineShoulder
    {
      OFFSET -0.006510 21.541343 -0.696158
      CHANNELS 3 Zrotation Xrotation Yrotation
      JOINT Neck
      {
        OFFSET -0.013512 7.124992 -0.528681
        CHANNELS 3 Zrotation Xrotation Yrotation
        JOINT Head
        {
          OFFSET -2.526415 12.076041 -0.682557
          CHANNELS 3 Zrotation Xrotation Yrotation
          End Site
          {
            OFFSET 0 0 0
          }
        }
      }
      JOINT ShoulderLeft
      {
        OFFSET -16.663490 -2.553492 6.121606
        CHANNELS 3 Zrotation Xrotation Yrotation
        JOINT ElbowLeft
        {
          OFFSET -2.692420 -24.779739 4.301574
          CHANNELS 3 Zrotation Xrotation Yrotation
          JOINT WristLeft
          {
            OFFSET -4.263810 -19.527213 -2.566992
            CHANNELS 3 Zrotation Xrotation Yrotation
            JOINT HandLeft
            {
              OFFSET 0.231133 -6.541847 -2.195462
              CHANNELS 3 Zrotation Xrotation Yrotation
              JOINT HandTipLeft
              {
                OFFSET -0.942277 -6.234098 -1.873591
                CHANNELS 3 Zrotation Xrotation Yrotation
                End Site
                {
                  OFFSET 0 0 0
                }
              }
              JOINT ThumbLeft
              {
                OFFSET 3.578421 -2.107928 -2.836271
                CHANNELS 3 Zrotation Xrotation Yrotation
                End Site
                {
                  OFFSET 0 0 0
                }
              }
            }
          }
        }
      }
      JOINT ShoulderRight
      {
        OFFSET 14.558351 -2.572309 -6.572982
        CHANNELS 3 Zrotation Xrotation Yrotation
        JOINT ElbowRight
        {
          OFFSET 5.884771 -24.402578 -2.926184
          CHANNELS 3 Zrotation Xrotation Yrotation
          JOINT WristRight
          {
            OFFSET -0.602707 -18.959420 -5.108754
            CHANNELS 3 Zrotation Xrotation Yrotation
            JOINT HandRight
            {
              OFFSET -2.431356 -8.485499 -1.319099
              CHANNELS 3 Zrotation Xrotation Yrotation
              JOINT HandTipRight
              {
                OFFSET -0.950212 -6.295494 -2.786419
                CHANNELS 3 Zrotation Xrotation Yrotation
                End Site
                {
                  OFFSET 0 0 0
                }
              }
              JOINT ThumbRight
              {
                OFFSET -3.785676 -1.224804 -1.970911
                CHANNELS 3 Zrotation Xrotation Yrotation
                End Site
                {
                  OFFSET 0 0 0
                }
              }
            }
          }
        }
      }
    }
  }
  JOINT HipLeft
  {
    OFFSET -5.876103 0.378740 -1.211342
    CHANNELS 3 Zrotation Xrotation Yrotation
    JOINT KneeLeft
    {
      OFFSET -7.437997 -31.012127 6.857447
      CHANNELS 3 Zrotation Xrotation Yrotation
      JOINT AnkleLeft
      {
        OFFSET -2.535752 -36.020449 8.514262
        CHANNELS 3 Zrotation Xrotation Yrotation
        JOINT FootLeft
        {
          OFFSET -3.465897 -3.712907 -13.096692
          CHANNELS 3 Zrotation Xrotation Yrotation
          End Site
          {
            OFFSET 0 0 0
          }
        }
      }
    }
  }
  JOINT HipRight
  {
    OFFSET 5.492048 0.910535 -5.326605
    CHANNELS 3 Zrotation Xrotation Yrotation
    JOINT KneeRight
    {
      OFFSET 5.067689 -33.719554 4.452881
      CHANNELS 3 Zrotation Xrotation Yrotation
      JOINT AnkleRight
      {
        OFFSET 0.938448 -31.705525 6.808107
        CHANNELS 3 Zrotation Xrotation Yrotation
        JOINT FootRight
        {
          OFFSET -2.271553 -4.782474 -11.268575
          CHANNELS 3 Zrotation Xrotation Yrotation
          End Site
          {
            OFFSET 0 0 0
          }
        }
      }
    }
  }
}
MOTION
Frames: 5
Frame Time: 0.033333
22.341522 72.749988 365.658378 2.560050 0.471855 17.774062 0.536863 -0.063599 -17.684337 0.153721 0.001929 0.142588 1.693479 -4.321523 -0.545571 0.000000 0.000000 0.000000 -27.922321 -13.756388 -6.027560 93.782960 71.734332 -76.426518 15.534763 -20.882647 22.918834 8.802473 -17.193466 2.113511 0.000000 0.000000 0.000000 0.000000 0.000000 0.000000 -1.872879 1.065207 -0.034578 -0.379149 -5.953781 -0.319053 -1.785974 6.067386 -0.139318 2.101704 -16.392111 2.405074 0.000000 0.000000 0.000000 0.000000 0.000000 0.000000 -4.902148 -0.700315 -17.797558 1.894332 1.691898 -0.014983 0.916159 -4.638977 1.339480 0.000000 0.000000 0.000000 -2.581854 0.332355 -17.777116 -0.723217 -0.457998 -0.171630 1.756885 -6.905213 1.555703 0.000000 0.000000 0.000000
22.309728 72.727403 365.753933 2.621948 0.394862 17.763584 0.532606 -0.036115 -17.671921 0.145745 0.013855 0.143554 1.529772 -4.200877 -0.549926 0.000000 0.000000 0.000000 -27.564271 -12.515186 -5.783387 89.306915 71.656367 -72.028982 15.692999 -20.816194 22.936276 8.801113 -16.938468 2.015356 0.000000 0.000000 0.000000 0.000000 0.000000 0.000000 -1.886319 1.121335 -0.037483 -0.725931 -6.076136 -0.250518 -1.343266 5.518895 -0.083355 2.178471 -15.672776 2.117150 0.000000 0.000000 0.000000 0.000000 0.000000 0.000000 -5.097385 -0.592854 -17.806232 2.416593 2.492002 0.027793 0.002318 -0.891177 -1.219668 0.000000 0.000000 0.000000 -2.617394 0.424015 -17.762933 -0.000000 0.000000 0.000000 0.984593 -7.408499 1.502840 0.000000 0.000000 0.000000
22.253761 72.700600 365.864668 2.637786 0.298854 17.776586 0.504014 -0.000603 -17.684807 0.137756 0.027365 0.141430 1.536779 -4.057695 -0.538664 0.000000 0.000000 0.000000 -27.416591 -11.149271 -5.601804 85.633310 71.464080 -68.114292 15.693615 -20.880926 22.972430 8.778319 -16.952908 2.020886 0.000000 0.000000 0.000000 0.000000 0.000000 0.000000 -1.724909 1.102002 -0.068469 -1.179435 -5.661506 -0.162924 -0.364377 4.091000 -0.018725 1.698067 -13.256698 1.538046 0.000000 0.000000 0.000000 0.000000 0.000000 0.000000 -5.089164 -0.505740 -17.808846 2.492396 2.585048 0.033874 -0.168705 -0.478967 -1.329119 0.000000 0.000000 0.000000 -2.603104 0.520773 -17.771635 -0.000000 0.000000 0.000000 0.427112 -5.765077 1.995854 0.000000 0.000000 0.000000
22.184852 72.683313 365.974145 2.620803 0.198878 17.786854 0.470803 0.038218 -17.695970 0.130563 0.037688 0.137872 1.760112 -3.937403 -0.512427 0.000000 0.000000 0.000000 -27.352283 -9.629493 -5.435015 82.111216 71.182342 -64.193406 15.637675 -21.017650 23.029441 8.777007 -16.976808 2.028338 0.000000 0.000000 0.000000 0.000000 0.000000 0.000000 -1.445392 1.048159 -0.115643 -1.927575 -4.853762 -0.018586 1.044043 1.338481 0.259824 1.622710 -9.214266 0.317482 0.000000 0.000000 0.000000 0.000000 0.000000 0.000000 -4.921091 -0.468021 -17.780271 2.468470 2.570670 0.026594 -0.305885 -0.637640 -1.084820 0.000000 0.000000 0.000000 -2.556340 0.611154 -17.777767 0.756690 -0.385594 0.153478 -1.378777 -2.247910 2.692856 0.000000 0.000000 0.000000
22.123891 72.663840 366.070002 2.619450 0.102251 17.794127 0.449264 0.058082 -17.702707 0.127373 0.037876 0.136219 1.753282 -3.711927 -0.495071 0.000000 0.000000 0.000000 -27.984024 -8.652372 -5.477725 81.775755 71.048699 -62.924564 15.381377 -21.289657 23.087416 8.856917 -17.193010 2.124773 0.000000 0.000000 0.000000 0.000000 0.000000 0.000000 -1.220765 1.022099 -0.162120 -2.572499 -4.620027 0.126506 1.516658 0.686620 0.280894 1.277045 -6.897131 -0.042547 0.000000 0.000000 0.000000 0.000000 0.000000 0.000000 -4.681364 -0.476810 -17.724072 2.263563 2.723828 -0.033720 -0.567882 -0.944239 -0.072273 0.000000 0.000000 0.000000 -1.415288 1.822573 -17.499640 0.767047 -1.966499 0.032522 -3.508459 2.185081 3.602869 0.000000 0.000000 0.000000
